<svg width="1177" height="263" viewBox="0 0 1177 263" xmlns="http://www.w3.org/2000/svg">
	<style>
		:root {
			--color: #121113;
		}

		#alt:target {
			--color: #fdfcfd;
		}

		path {
			fill: var(--color);
		}
	</style>
	<g id="alt">
		<path d="M.104-.479c0-.081.017-.138.049-.169.032-.032.082-.048.152-.048.054 0 .114.008.177.025L.5-.696c.027 0 .045.001.054.004.009.002.015.007.016.014.001.006.002.018.002.034v.409c0 .078.001.139.003.185h.054c.005.008.007.017.007.027 0 .009-.002.015-.006.018C.627-.002.62 0 .609 0H.415C.411-.01.409-.02.409-.029c0-.007.002-.013.005-.016.004-.004.01-.005.018-.005h.036c.003-.046.004-.122.004-.23v-.311C.396-.619.334-.633.287-.633c-.038 0-.061.01-.07.029-.009.02-.014.053-.014.098v.027h.128c.004.011.006.023.006.035 0 .009-.002.015-.005.018-.004.004-.011.005-.022.005H.203v.212c0 .06.002.113.004.159h.071c.004.008.006.017.006.027 0 .009-.002.015-.005.018C.275-.002.268 0 .258 0H.047C.043-.01.041-.02.041-.029c0-.007.001-.013.005-.016C.049-.049.055-.05.063-.05H.1c.002-.046.004-.099.004-.159v-.212H.046C.042-.433.041-.444.041-.455c0-.008.001-.014.005-.018.003-.004.01-.006.018-.006h.04Z" transform="matrix(288 0 0 288 -11.672 200.39)" />
		<path d="M.257-.425C.225-.425.2-.414.183-.39c-.017.023-.026.059-.028.109h.051c.053 0 .089-.001.109-.003.019-.003.03-.006.033-.011C.351-.3.353-.309.353-.322c0-.032-.008-.058-.024-.076C.312-.416.289-.425.257-.425Zm.019-.066c.06 0 .105.015.135.043.029.029.044.076.044.142 0 .029-.006.049-.016.06-.01.012-.033.017-.068.017H.155c0 .054.011.095.032.125.02.031.057.046.109.046.049 0 .095-.013.137-.038.014.014.021.029.021.044 0 .022-.018.037-.054.046C.364.003.323.007.278.007.194.007.135-.01.098-.046.062-.081.044-.14.044-.224c0-.082.02-.148.061-.195.041-.048.098-.072.171-.072Z" transform="matrix(288 0 0 288 165.867 200.39)" />
		<path d="M.257-.425C.225-.425.2-.414.183-.39c-.017.023-.026.059-.028.109h.051c.053 0 .089-.001.109-.003.019-.003.03-.006.033-.011C.351-.3.353-.309.353-.322c0-.032-.008-.058-.024-.076C.312-.416.289-.425.257-.425Zm.019-.066c.06 0 .105.015.135.043.029.029.044.076.044.142 0 .029-.006.049-.016.06-.01.012-.033.017-.068.017H.155c0 .054.011.095.032.125.02.031.057.046.109.046.049 0 .095-.013.137-.038.014.014.021.029.021.044 0 .022-.018.037-.054.046C.364.003.323.007.278.007.194.007.135-.01.098-.046.062-.081.044-.14.044-.224c0-.082.02-.148.061-.195.041-.048.098-.072.171-.072Z" transform="matrix(288 0 0 288 295.316 200.39)" />
		<path d="M.266.01C.186.01.129-.007.095-.041.061-.074.044-.132.044-.213c0-.091.021-.159.064-.207.043-.047.107-.071.195-.071.042 0 .073.004.093.012.019.008.028.02.029.036 0 .02-.007.038-.021.056C.355-.413.314-.425.279-.425c-.045 0-.077.014-.096.043-.019.029-.029.074-.029.135 0 .064.01.111.028.143.019.032.053.048.102.048.037 0 .081-.012.13-.037.011.015.016.03.016.046 0 .018-.017.032-.05.042C.346.005.308.01.266.01Z" transform="matrix(288 0 0 288 421.596 200.39)" />
		<path d="M.257-.425C.225-.425.2-.414.183-.39c-.017.023-.026.059-.028.109h.051c.053 0 .089-.001.109-.003.019-.003.03-.006.033-.011C.351-.3.353-.309.353-.322c0-.032-.008-.058-.024-.076C.312-.416.289-.425.257-.425Zm.019-.066c.06 0 .105.015.135.043.029.029.044.076.044.142 0 .029-.006.049-.016.06-.01.012-.033.017-.068.017H.155c0 .054.011.095.032.125.02.031.057.046.109.046.049 0 .095-.013.137-.038.014.014.021.029.021.044 0 .022-.018.037-.054.046C.364.003.323.007.278.007.194.007.135-.01.098-.046.062-.081.044-.14.044-.224c0-.082.02-.148.061-.195.041-.048.098-.072.171-.072Z" transform="matrix(288 0 0 288 538.166 200.39)" />
		<path d="M.484-.313c0 .137.002.224.004.263H.54c.004.008.006.017.006.027 0 .009-.002.015-.005.018C.537-.002.53 0 .52 0H.347C.343-.01.341-.02.341-.029c0-.007.002-.013.005-.016C.35-.049.356-.05.364-.05h.017c.002-.048.003-.115.003-.201 0-.067-.007-.112-.021-.134C.349-.407.326-.418.294-.418c-.02 0-.04.008-.06.023-.02.015-.029.043-.029.082v.104c0 .057.001.11.003.159h.04c.003.008.005.017.005.027 0 .009-.001.015-.005.018C.244-.002.238 0 .228 0H.05C.046-.01.044-.02.044-.029c0-.007.002-.013.005-.016.004-.004.01-.005.018-.005h.034c.002-.052.003-.116.003-.191 0-.096-.003-.151-.011-.167C.086-.423.071-.431.05-.431.046-.44.044-.449.044-.459c0-.009.003-.014.01-.017.007-.002.05-.005.13-.007.002.015.002.034 0 .057.032-.021.063-.037.093-.047.029-.01.057-.015.082-.015.033 0 .057.005.075.017.017.011.029.025.035.042.029-.02.058-.034.088-.044.029-.01.056-.015.081-.015.04 0 .071.01.093.03.022.02.033.058.033.114 0 .175.003.268.008.279.005.01.016.015.035.015.003.009.005.019.005.028 0 .009-.003.015-.008.018C.798-.001.788 0 .773 0 .728 0 .7-.001.69-.002.68-.003.673-.006.669-.012.666-.018.664-.027.664-.041v-.21c0-.067-.007-.112-.021-.134C.629-.407.606-.418.574-.418c-.02 0-.04.008-.06.023-.02.015-.03.043-.03.082Z" transform="matrix(288 0 0 288 664.446 200.39)" />
		<path d="M.338-.039c-.027.016-.055.028-.084.036C.225.006.197.01.169.01.125.01.093-.001.071-.021.05-.042.039-.073.039-.113c0-.05.018-.088.053-.115.036-.026.091-.039.165-.039h.072C.327-.324.318-.364.304-.387.289-.409.264-.42.227-.42c-.019 0-.038.002-.056.005-.01.019-.015.029-.017.031-.002.001-.011.004-.028.008-.017.005-.029.004-.035-.002C.084-.384.077-.395.07-.411.063-.427.06-.44.06-.45c0-.006.002-.011.008-.015.005-.003.027-.008.065-.013.039-.005.08-.008.123-.008.057 0 .1.01.128.03.027.02.041.056.041.109v.151c0 .069.003.112.009.127.006.015.016.022.03.019.004.007.006.014.006.021 0 .011-.007.019-.021.025C.435.002.417.005.393.005.382.005.373.003.367.001.361-.002.351-.015.338-.039ZM.329-.204C.301-.209.272-.211.242-.211c-.037 0-.063.006-.078.018-.015.012-.022.032-.022.059 0 .026.006.045.019.059.014.013.034.019.062.019.021 0 .041-.004.06-.012.018-.009.031-.021.037-.036.006-.015.009-.039.009-.071v-.029Z" transform="matrix(288 0 0 288 895.406 200.39)" />
		<path d="M.245-.435c-.031 0-.054.009-.069.026-.015.017-.022.049-.022.095 0 .039.007.067.022.085.014.018.037.027.068.027.033 0 .057-.008.072-.024C.332-.242.34-.273.34-.317c0-.04-.008-.069-.024-.089C.3-.425.277-.435.245-.435Zm.166 0c.018.033.027.068.027.104 0 .055-.017.1-.053.134-.035.034-.09.051-.166.051-.034 0-.057.003-.067.011-.01.007-.015.017-.015.031 0 .017.007.03.021.037.013.008.063.011.15.011.085 0 .14.009.165.026.025.018.038.044.038.078C.511.099.484.14.43.17.377.2.294.215.182.215.127.215.09.207.072.193.053.178.044.157.044.13.044.111.049.09.06.07.07.049.084.029.103.01.087.003.074-.006.065-.019.055-.032.05-.048.05-.067s.006-.037.019-.054C.081-.137.1-.152.125-.164.105-.173.088-.188.075-.209.062-.231.056-.26.056-.295c0-.057.017-.104.052-.141.036-.036.088-.055.159-.055.039 0 .075.007.108.019C.417-.491.443-.5.451-.5c.039 0 .061.001.064.003.004.002.006.005.006.01 0 .009-.004.021-.012.037-.008.015-.015.023-.021.023-.007 0-.029-.007-.065-.022l-.012.014Zm-.245.45C.155.026.146.039.14.053.134.068.131.082.131.097c0 .022.007.038.02.048.013.009.04.014.08.014C.29.159.334.152.364.138.393.124.408.104.408.077.408.054.397.037.375.028.354.019.284.015.166.015Z" transform="matrix(288 0 0 288 1026.806 200.39)" />
	</g>
</svg>
